<svg id="icons" enable-background="new 0 0 64 64" height="512" viewBox="0 0 64 64" width="512" xmlns="http://www.w3.org/2000/svg"><path d="m1 58c0 .55.45 1 1 1h60c.55 0 1-.45 1-1v-49h-62z" fill="#e6e9ed"/><path d="m63 7v2h-62v-2c0-1.109.89-2 2-2h58c1.11 0 2 .891 2 2z" fill="#ccd1d9"/><path d="m4.006 5.998h-.01c-.553 0-.995.447-.995 1 0 .552.452 1 1.005 1s1-.448 1-1c0-.553-.447-1-1-1z" fill="#e6e9ed"/><path d="m7.005 5.998h-.01c-.552 0-.995.447-.995 1 0 .552.453 1 1.005 1 .553 0 1-.448 1-1 0-.553-.447-1-1-1z" fill="#e6e9ed"/><path d="m10.008 5.998h-.01c-.553 0-.995.447-.995 1 0 .552.452 1 1.005 1s1-.448 1-1c0-.553-.447-1-1-1z" fill="#e6e9ed"/><path d="m1 9v49c0 .55.45 1 1 1h17v-50z" fill="#656d78"/><g fill="#545c66"><path d="m4.501 13.498h2.999c.275 0 .5-.225.5-.5s-.225-.5-.5-.5h-2.999c-.275 0-.5.225-.5.5s.225.5.5.5z"/><path d="m4.501 15.499h2.999c.275 0 .5-.225.5-.5s-.225-.5-.5-.5h-2.999c-.275 0-.5.225-.5.5s.225.5.5.5z"/><path d="m13.999 23.997h-8.999c-.553 0-1-.447-1-1s.447-1 1-1h8.999c.553 0 1 .447 1 1s-.447 1-1 1z"/><path d="m9.995 26.997h-4.995c-.553 0-1-.447-1-1s.447-1 1-1h4.995c.553 0 1 .447 1 1s-.447 1-1 1z"/><path d="m15 29.997h-10c-.553 0-1-.447-1-1s.447-1 1-1h10c.553 0 1 .447 1 1s-.447 1-1 1z"/><path d="m12.998 32.997h-7.998c-.553 0-1-.447-1-1s.447-1 1-1h7.998c.553 0 1 .447 1 1s-.447 1-1 1z"/><path d="m13.999 35.997h-8.999c-.553 0-1-.447-1-1s.447-1 1-1h8.999c.553 0 1 .447 1 1s-.447 1-1 1z"/><path d="m9.995 38.997h-4.995c-.553 0-1-.447-1-1s.447-1 1-1h4.995c.553 0 1 .447 1 1s-.447 1-1 1z"/></g><path d="m5.03 45.992c-.553 0-1.005-.447-1.005-1s.442-1 .994-1h.011c.552 0 1 .447 1 1s-.448 1-1 1z" fill="#5d9cec"/><path d="m8.03 45.992c-.553 0-1.005-.447-1.005-1s.442-1 .994-1h.011c.552 0 1 .447 1 1s-.448 1-1 1z" fill="#ed5565"/><path d="m11.03 45.992c-.553 0-1.005-.447-1.005-1s.442-1 .994-1h.011c.552 0 1 .447 1 1s-.448 1-1 1z" fill="#4fc1e9"/><path d="m59 25.999h-16c-.553 0-1-.447-1-1v-12.002c0-.553.447-1 1-1h16c.553 0 1 .447 1 1v12.002c0 .553-.447 1-1 1z" fill="#5d9cec"/><path d="m59 28.997h-16c-.553 0-1-.447-1-1s.447-1 1-1h16c.553 0 1 .447 1 1s-.447 1-1 1z" fill="#ccd1d9"/><path d="m51 31.997h-8c-.553 0-1-.447-1-1s.447-1 1-1h8c.553 0 1 .447 1 1s-.447 1-1 1z" fill="#ccd1d9"/><path d="m55.814 18.417c-.033-.046-.08-.072-.119-.111s-.066-.088-.113-.121c-.01-.007-.021-.008-.031-.015-.062-.04-.13-.062-.197-.088-.055-.021-.105-.05-.162-.061-.065-.013-.131-.005-.197-.005-.062 0-.122-.007-.182.005-.059.011-.111.04-.167.063-.067.025-.134.047-.194.087-.01.006-.021.007-.031.014-.047.033-.073.081-.112.12s-.087.065-.12.112l-5.414 7.582h10.225c.553 0 1-.447 1-1v-.721z" fill="#656d78"/><path d="m46.031 17.493c-.827 0-1.504-.669-1.504-1.496s.662-1.496 1.488-1.496h.016c.826 0 1.496.669 1.496 1.496s-.67 1.496-1.496 1.496z" fill="#ffce54"/><path d="m50.32 20.426c-.035-.051-.086-.081-.129-.123-.04-.04-.068-.089-.117-.123-.007-.005-.015-.005-.021-.009-.068-.046-.145-.07-.221-.097-.048-.018-.091-.044-.14-.054-.063-.013-.127-.004-.191-.004s-.129-.009-.191.004c-.049.01-.092.036-.14.054-.076.026-.152.051-.221.097-.007.004-.015.004-.021.009-.048.033-.075.082-.115.121-.043.043-.095.073-.131.125l-3.9 5.573h3.992l2.751-3.853z" fill="#545c66"/><path d="m39 25.999h-16c-.553 0-1-.447-1-1v-12.002c0-.553.447-1 1-1h16c.553 0 1 .447 1 1v12.002c0 .553-.447 1-1 1z" fill="#5d9cec"/><path d="m39 28.997h-16c-.553 0-1-.447-1-1s.447-1 1-1h16c.553 0 1 .447 1 1s-.447 1-1 1z" fill="#ccd1d9"/><path d="m31 31.997h-8c-.553 0-1-.447-1-1s.447-1 1-1h8c.553 0 1 .447 1 1s-.447 1-1 1z" fill="#ccd1d9"/><path d="m35.814 18.417c-.033-.046-.08-.072-.119-.111s-.066-.088-.113-.121c-.01-.007-.021-.008-.031-.015-.062-.04-.13-.062-.197-.088-.055-.021-.105-.05-.162-.061-.065-.013-.131-.005-.197-.005-.062 0-.122-.007-.182.005-.059.011-.111.04-.167.063-.067.025-.134.047-.194.087-.01.006-.021.007-.031.014-.047.033-.073.081-.112.12s-.087.065-.12.112l-5.414 7.582h10.225c.553 0 1-.447 1-1v-.721z" fill="#656d78"/><path d="m26.031 17.493c-.827 0-1.504-.669-1.504-1.496s.662-1.496 1.488-1.496h.016c.826 0 1.496.669 1.496 1.496s-.67 1.496-1.496 1.496z" fill="#ffce54"/><path d="m30.32 20.426c-.035-.051-.086-.081-.129-.123-.04-.04-.068-.089-.117-.123-.007-.005-.015-.005-.021-.009-.068-.046-.145-.07-.221-.097-.048-.018-.091-.044-.14-.054-.063-.013-.127-.004-.191-.004s-.129-.009-.191.004c-.049.01-.092.036-.14.054-.076.026-.152.051-.221.097-.007.004-.015.004-.021.009-.048.033-.075.082-.115.121-.043.043-.095.073-.131.125l-3.9 5.573h3.992l2.751-3.853z" fill="#545c66"/><path d="m59 48.994h-16c-.553 0-1-.447-1-1v-12.002c0-.553.447-1 1-1h16c.553 0 1 .447 1 1v12.002c0 .553-.447 1-1 1z" fill="#5d9cec"/><path d="m59 51.992h-16c-.553 0-1-.447-1-1s.447-1 1-1h16c.553 0 1 .447 1 1s-.447 1-1 1z" fill="#ccd1d9"/><path d="m51 54.992h-8c-.553 0-1-.447-1-1s.447-1 1-1h8c.553 0 1 .447 1 1s-.447 1-1 1z" fill="#ccd1d9"/><path d="m55.814 41.412c-.033-.046-.08-.072-.119-.111s-.066-.088-.113-.121c-.01-.007-.021-.008-.031-.015-.062-.04-.13-.062-.197-.088-.055-.021-.105-.05-.162-.061-.065-.013-.131-.005-.197-.005-.062 0-.122-.007-.182.005-.059.011-.111.04-.167.063-.067.025-.134.047-.194.087-.01.006-.021.007-.031.014-.047.033-.073.081-.112.12s-.087.065-.12.112l-5.414 7.582h10.225c.553 0 1-.447 1-1v-.721z" fill="#656d78"/><path d="m46.031 40.488c-.827 0-1.504-.669-1.504-1.496s.662-1.496 1.488-1.496h.016c.826 0 1.496.669 1.496 1.496s-.67 1.496-1.496 1.496z" fill="#ffce54"/><path d="m50.32 43.421c-.035-.051-.086-.081-.129-.123-.04-.04-.068-.089-.117-.123-.007-.005-.015-.005-.021-.009-.068-.046-.145-.07-.221-.097-.048-.018-.091-.044-.14-.054-.063-.013-.127-.004-.191-.004s-.129-.009-.191.004c-.049.01-.092.036-.14.054-.076.026-.152.051-.221.097-.007.004-.015.004-.021.009-.048.033-.075.082-.115.121-.043.043-.095.073-.131.125l-3.9 5.573h3.992l2.751-3.853z" fill="#545c66"/><path d="m39 48.994h-16c-.553 0-1-.447-1-1v-12.002c0-.553.447-1 1-1h16c.553 0 1 .447 1 1v12.002c0 .553-.447 1-1 1z" fill="#5d9cec"/><path d="m39 51.992h-16c-.553 0-1-.447-1-1s.447-1 1-1h16c.553 0 1 .447 1 1s-.447 1-1 1z" fill="#ccd1d9"/><path d="m31 54.992h-8c-.553 0-1-.447-1-1s.447-1 1-1h8c.553 0 1 .447 1 1s-.447 1-1 1z" fill="#ccd1d9"/><path d="m35.814 41.412c-.033-.046-.08-.072-.119-.111s-.066-.088-.113-.121c-.01-.007-.021-.008-.031-.015-.062-.04-.13-.062-.197-.088-.055-.021-.105-.05-.162-.061-.065-.013-.131-.005-.197-.005-.062 0-.122-.007-.182.005-.059.011-.111.04-.167.063-.067.025-.134.047-.194.087-.01.006-.021.007-.031.014-.047.033-.073.081-.112.12s-.087.065-.12.112l-5.414 7.582h10.225c.553 0 1-.447 1-1v-.721z" fill="#656d78"/><path d="m26.031 40.488c-.827 0-1.504-.669-1.504-1.496s.662-1.496 1.488-1.496h.016c.826 0 1.496.669 1.496 1.496s-.67 1.496-1.496 1.496z" fill="#ffce54"/><path d="m30.32 43.421c-.035-.051-.086-.081-.129-.123-.04-.04-.068-.089-.117-.123-.007-.005-.015-.005-.021-.009-.068-.046-.145-.07-.221-.097-.048-.018-.091-.044-.14-.054-.063-.013-.127-.004-.191-.004s-.129-.009-.191.004c-.049.01-.092.036-.14.054-.076.026-.152.051-.221.097-.007.004-.015.004-.021.009-.048.033-.075.082-.115.121-.043.043-.095.073-.131.125l-3.9 5.573h3.992l2.751-3.853z" fill="#545c66"/><path d="m15.498 51.992c.275 0 .5.225.5.5v2c0 .275-.225.5-.5.5h-10.973c-.275 0-.5-.225-.5-.5v-2c0-.275.225-.5.5-.5z" fill="#e6e9ed"/><path d="m15.498 51.992c.275 0 .5.225.5.5v2c0 .275-.225.5-.5.5h-2c-.275 0-.5-.225-.5-.5v-2c0-.275.225-.5.5-.5z" fill="#aab2bd"/></svg>